<svg width="134" height="108" viewBox="0 0 134 108" fill="none" xmlns="http://www.w3.org/2000/svg">
<path d="M34.2638 24.1146C34.2638 24.1146 33.1248 25.1201 34.5452 27.131C35.9656 29.142 51.0272 29.5543 52.7189 19.8278C54.4107 10.1014 34.2638 24.1146 34.2638 24.1146Z" fill="#68E1FD"/>
<path d="M34.1466 24.3793C33.6139 24.8351 33.7714 25.415 33.9556 26.0283C34.0838 26.4937 34.3403 26.9137 34.6957 27.2403C35.0511 27.5668 35.4912 27.7868 35.9656 27.8751C36.8758 28.1095 37.8098 28.2388 38.7495 28.2605C39.9421 28.3036 41.1363 28.2385 42.3172 28.0661C43.5992 27.8915 44.8584 27.578 46.0726 27.131C47.2932 26.6883 48.4371 26.0573 49.4628 25.2608C51.1973 23.921 52.3607 21.9739 52.719 19.811C52.853 19.0502 52.9166 18.1755 52.5649 17.4649C52.432 17.2069 52.2424 16.9824 52.0103 16.8082C51.7782 16.6341 51.5096 16.5148 51.2249 16.4594C50.4804 16.3289 49.7169 16.3563 48.9837 16.5399C48.0205 16.7517 47.0778 17.0478 46.1664 17.4247C45.1178 17.8403 44.0927 18.3196 43.0844 18.8324C42.076 19.3452 41.0476 19.9049 40.0493 20.4814C39.1559 21.002 38.2626 21.5382 37.3693 22.0901C36.6993 22.5125 36.0293 22.9426 35.3593 23.3805C35.0243 23.6051 34.6625 23.8229 34.3342 24.071C34.3107 24.0844 34.17 24.3558 34.1466 24.3793Z" fill="#303560"/>
<path d="M68.4102 64.7066L75.8137 52.6844L80.2089 45.5421C80.5546 45.044 80.8722 44.527 81.1603 43.9936C81.1804 43.95 81.2307 43.8495 81.1804 43.9936C81.199 43.9043 81.2079 43.8133 81.2072 43.7221C81.2407 43.2395 81.301 42.7569 81.3479 42.2742L82.1754 33.7812C82.1955 33.5701 82.5305 33.5667 82.5104 33.7812L81.7801 41.2989C81.6963 42.1435 81.7566 43.1758 81.5188 43.9802C81.3622 44.3387 81.1619 44.6764 80.9225 44.9857L71.71 59.9473L68.695 64.8374C68.5811 65.0217 68.293 64.8374 68.4069 64.6698L68.4102 64.7066Z" fill="#4D4D4D"/>
<path d="M90.4499 39.2943L81.5088 44.0034C81.3178 44.1039 81.147 43.8157 81.3413 43.7151L90.2824 39.0061C90.4734 38.9055 90.6442 39.1938 90.4499 39.2943Z" fill="#4D4D4D"/>
<path d="M86.1618 36.5158L80.5841 45.5652C80.4702 45.7496 80.1821 45.5652 80.296 45.3977L85.8737 36.3483C85.9876 36.1639 86.2757 36.3483 86.1618 36.5158Z" fill="#4D4D4D"/>
<path d="M67.4824 64.0728L71.02 48.9502L73.1875 39.6863C73.3617 38.9423 73.5224 38.1982 73.71 37.4575C73.767 37.2229 73.7503 37.3167 73.7436 37.2497C73.6762 36.8294 73.5856 36.4132 73.4722 36.0029L71.4622 26.7524C71.4153 26.5413 71.7403 26.4508 71.7972 26.6619L73.5962 34.9002C73.757 35.6376 74.1389 36.576 74.1054 37.3369C74.0307 37.858 73.9108 38.3716 73.7469 38.8719L69.2479 58.1035L67.8308 64.1633C67.7805 64.3744 67.4589 64.2839 67.4958 64.0728H67.4824Z" fill="#4D4D4D"/>
<path d="M80.6078 29.5577L74.0351 37.2396C73.8944 37.4039 73.6599 37.1659 73.7972 37.0017L80.3699 29.3197C80.5106 29.1555 80.7451 29.3935 80.6078 29.5577Z" fill="#4D4D4D"/>
<path d="M76.1958 28.4016L73.6699 39.0866C73.6196 39.2977 73.298 39.2072 73.3349 38.9961L75.8608 28.3111C75.911 28.0999 76.2326 28.1904 76.1958 28.4016Z" fill="#4D4D4D"/>
<path d="M65.2011 63.098L64.32 45.9678L63.7639 35.3599C63.717 34.4583 63.65 33.5601 63.6232 32.6585C63.6232 32.5546 63.5797 32.2563 63.6232 32.4004C63.4835 32.0111 63.3155 31.6325 63.1207 31.2676L58.8964 21.7523C58.8093 21.5579 59.0974 21.387 59.1845 21.5847L62.9633 30.1414C63.2715 30.8386 63.774 31.6195 63.9281 32.3736C64.0073 33.0151 64.0409 33.6613 64.0286 34.3075L65.1776 56.2875L65.5327 63.1013C65.5327 63.3158 65.1977 63.3158 65.1977 63.1013L65.2011 63.098Z" fill="#4D4D4D"/>
<path d="M68.8761 23.4886L63.9014 32.4241C63.7975 32.6118 63.5061 32.4442 63.6133 32.2565L68.588 23.3177C68.6919 23.13 68.9833 23.2976 68.8761 23.4853V23.4886Z" fill="#4D4D4D"/>
<path d="M63.3148 22.543L64.0283 34.1999C64.0283 34.4144 63.6933 34.4144 63.6933 34.1999L62.9798 22.543C62.9798 22.3285 63.3148 22.3285 63.3148 22.543Z" fill="#4D4D4D"/>
<path d="M63.6499 64.1633L59.0503 47.07L55.9114 35.4164L54.8863 31.6089C54.7984 31.1752 54.6866 30.7466 54.5513 30.3253C54.2345 29.8034 53.8807 29.305 53.4927 28.8338L51.5028 26.0318L48.6285 21.9864C48.5045 21.8088 48.7926 21.6513 48.9166 21.8188L54.5814 29.7957C54.8131 30.1219 54.974 30.4929 55.0538 30.885L55.9147 34.0858L62.2094 57.46L63.9916 64.0761C63.9975 64.0981 63.999 64.1211 63.9961 64.1437C63.9932 64.1663 63.9858 64.1881 63.9745 64.2079C63.9631 64.2276 63.948 64.245 63.9299 64.2589C63.9119 64.2728 63.8913 64.283 63.8693 64.289C63.8473 64.2949 63.8243 64.2964 63.8017 64.2935C63.7791 64.2906 63.7574 64.2832 63.7376 64.2719C63.7178 64.2605 63.7005 64.2454 63.6866 64.2273C63.6727 64.2093 63.6625 64.1886 63.6566 64.1666L63.6499 64.1633Z" fill="#4D4D4D"/>
<path d="M58.4575 20.7399L54.7926 30.1613C54.7155 30.3591 54.3906 30.2753 54.4576 30.0708L58.1325 20.6527C58.2096 20.455 58.5345 20.5388 58.4675 20.7432L58.4575 20.7399Z" fill="#4D4D4D"/>
<path d="M52.4177 20.7431L55.3221 31.9978C55.3341 32.0423 55.328 32.0897 55.305 32.1296C55.2821 32.1695 55.2443 32.1987 55.1998 32.2107C55.1554 32.2227 55.1081 32.2165 55.0682 32.1936C55.0283 32.1706 54.9991 32.1328 54.9871 32.0883L52.0827 20.8336C52.0707 20.7891 52.0768 20.7417 52.0998 20.7018C52.1111 20.6821 52.1262 20.6647 52.1443 20.6508C52.1623 20.6369 52.183 20.6267 52.205 20.6207C52.2494 20.6087 52.2967 20.6149 52.3366 20.6378C52.3765 20.6608 52.4057 20.6986 52.4177 20.7431Z" fill="#4D4D4D"/>
<path d="M94.7079 55.4692L84.6277 56.1563C84.4133 56.1563 84.4133 55.8211 84.6277 55.8211L94.7079 55.134C94.9223 55.134 94.9223 55.4692 94.7079 55.4692Z" fill="#4D4D4D"/>
<path d="M91.9272 51.1928C85.8034 55.3712 79.6315 59.4658 73.4117 63.4765C72.0717 64.3345 70.5977 65.082 69.5358 66.245C69.3884 66.4059 69.1539 66.1679 69.2979 66.007C70.1857 65.035 71.3079 64.4351 72.4101 63.7212L78.6779 59.6657C81.3043 57.9665 83.9106 56.2504 86.4935 54.4875L91.753 50.9012C91.9305 50.7806 92.088 51.0688 91.9205 51.1895L91.9272 51.1928Z" fill="#4D4D4D"/>
<path d="M89.6961 47.2515L84.6711 56.1903C84.6467 56.2238 84.6107 56.2471 84.5701 56.2557C84.5296 56.2642 84.4873 56.2574 84.4514 56.2366C84.4156 56.2157 84.3887 56.1823 84.3761 56.1428C84.3634 56.1033 84.3659 56.0605 84.383 56.0227L89.408 47.0839C89.4324 47.0504 89.4683 47.027 89.5089 47.0185C89.5495 47.0099 89.5918 47.0167 89.6276 47.0376C89.6635 47.0584 89.6903 47.0919 89.703 47.1314C89.7156 47.1709 89.7132 47.2137 89.6961 47.2515Z" fill="#4D4D4D"/>
<path d="M112.691 43.0416C112.691 43.0416 114.295 47.8411 109.713 52.8954C105.13 57.9496 96.1953 61.1471 92.5304 58.3954C88.8655 55.6437 86.8019 31.8069 64.8091 24.2423C42.8164 16.6777 33.8819 24.7149 33.8819 24.7149C33.8819 24.7149 42.1296 11.1911 57.9383 6.83734C73.7469 2.48358 104.443 10.494 112.691 43.0416Z" fill="#579EF2"/>
<path d="M63.6123 60.8724C63.6123 60.8724 68.5142 60.0006 69.4486 60.2185C70.3837 60.4338 72.7788 72.0026 72.7743 72.4273C72.7726 72.8527 68.2097 74.1921 67.4867 74.3155C66.7636 74.4389 63.5257 60.8723 63.5257 60.8723" fill="url(#paint0_linear_328_7874)"/>
<path d="M59.2876 63.0435C58.1133 63.0521 54.4522 63.0238 52.3628 62.7103C50.2762 62.3975 47.0616 59.6339 45.9699 59.5178C45.6783 59.4859 44.701 61.1673 44.7274 61.488C44.8225 62.627 48.2734 65.2523 50.657 66.125C53.0405 66.9976 57.5026 67.7406 59.0986 67.7094C60.6946 67.6782 61.6185 63.0273 59.2876 63.0435Z" fill="url(#paint1_linear_328_7874)"/>
<path d="M45.9004 59.3579C45.899 59.3202 45.8949 59.2817 45.8793 59.243L45.2056 57.4429C45.1403 57.2672 44.945 57.1776 44.768 57.2455C44.5917 57.3106 44.5019 57.5053 44.5672 57.681L44.9147 58.6112C44.7451 58.5227 44.5718 58.4477 44.4191 58.404L43.3509 57.1374C43.2309 56.9931 43.0161 56.976 42.8714 57.0957C42.7266 57.2153 42.7095 57.4294 42.8295 57.5737L43.6875 58.5913C43.6504 58.6217 43.6161 58.6528 43.581 58.6866L42.2581 57.7663C42.105 57.6593 41.8927 57.6975 41.7853 57.8501C41.6779 58.0027 41.7162 58.2144 41.8693 58.3215L43.1628 59.2223C43.1475 59.247 43.1356 59.2698 43.1203 59.2945L42.0422 58.6986C41.876 58.6081 41.6694 58.668 41.5794 58.831C41.4894 58.994 41.5495 59.2 41.7123 59.2924L42.8789 59.935C42.8789 59.935 42.8775 59.9403 42.876 59.9457L42.1165 59.668C41.9403 59.6037 41.7461 59.6928 41.6789 59.8676C41.6144 60.0432 41.7038 60.2369 41.8792 60.3039L43.2006 60.7892C44.2749 61.6574 45.0395 61.5941 45.6514 60.7676C45.9856 60.3188 46.1042 59.7059 45.8969 59.3599L45.9004 59.3579Z" fill="url(#paint2_linear_328_7874)"/>
<path d="M54.9555 63.009C54.9251 63.09 54.2151 65.001 55.2329 67.4541C55.2608 67.522 55.3387 67.5543 55.4068 67.5265C55.4749 67.4986 55.5074 67.421 55.4794 67.3531C54.5059 65.0039 55.1991 63.123 55.2069 63.1049C55.2337 63.0372 55.1998 62.9591 55.1286 62.9343C55.0607 62.9076 54.9824 62.9413 54.9575 63.0124L54.9555 63.009Z" fill="#FF9B92"/>
<path d="M62.6339 73.286C62.6339 73.286 56.0642 81.4497 55.297 83.0109C54.5298 84.5721 57.529 95.9984 57.529 95.9984C57.529 95.9984 55.4602 98.0163 55.2877 98.2126C55.1172 98.4105 55.5839 99.3969 55.8704 99.5815C56.1569 99.7662 61.6689 97.3444 62.1348 97.0151C62.6007 96.6857 61.4754 94.7712 61.4754 94.7712C61.4754 94.7712 60.2429 85.5793 60.2884 85.3148C60.334 85.0504 68.1031 76.4365 68.1031 76.4365L62.6371 73.282L62.6339 73.286Z" fill="url(#paint3_linear_328_7874)"/>
<path d="M64.4025 75.8274C64.4025 75.8274 65.4592 86.2982 65.9607 87.96C66.4622 89.6218 76.4638 95.9456 76.4638 95.9456C76.4638 95.9456 76.321 98.8252 76.3315 99.0859C76.342 99.3467 77.3576 99.7523 77.6933 99.6913C78.0307 99.6322 80.425 94.1218 80.5416 93.5657C80.6601 93.008 78.5254 92.3718 78.5254 92.3718C78.5254 92.3718 71.3464 86.488 71.2 86.2638C71.0536 86.0395 70.4762 73.4566 70.4762 73.4566L64.4025 75.8274Z" fill="url(#paint4_linear_328_7874)"/>
<path d="M60.5473 75.5842C60.5473 75.5842 60.4031 76.0349 60.4578 76.2394C60.5145 76.4474 63.8296 77.8278 65.9794 77.6798L60.5473 75.5842Z" fill="url(#paint5_linear_328_7874)"/>
<path d="M66.4272 77.6231L70.1603 73.1529C70.1603 73.1529 70.5058 73.3603 70.5746 73.652C70.6434 73.9438 67.5927 77.7762 66.4272 77.6231Z" fill="url(#paint6_linear_328_7874)"/>
<path d="M60.4519 74.9197C60.4519 74.9197 60.3886 75.4236 60.5791 75.6385C60.7696 75.8534 65.6934 77.6492 66.0659 77.7026C66.4376 77.7588 66.6543 77.5001 66.9388 77.3114C67.2227 77.1253 70.1725 73.5394 70.222 73.2907C70.2722 73.0394 69.8273 72.4716 69.8273 72.4716L60.4526 74.917L60.4519 74.9197Z" fill="url(#paint7_linear_328_7874)"/>
<path d="M62.2039 61.7633C61.0018 62.058 58.2416 63.1451 58.0275 65.1339C57.8126 67.1254 59.8113 74.0906 60.4533 75.1283L69.8632 73.0348C69.8632 73.0348 68.8019 66.7918 68.5482 64.3529C68.2045 61.0353 64.7222 61.1468 62.2066 61.7641L62.2039 61.7633Z" fill="url(#paint8_linear_328_7874)"/>
<path d="M58.9143 62.0607C58.9143 62.0607 58.2733 62.9312 59.2662 63.6511C60.2591 64.3709 63.1412 64.5164 64.3117 63.1255C65.4822 61.7346 65.0158 61.2791 64.599 60.9289C64.1822 60.5788 58.9143 62.0607 58.9143 62.0607Z" fill="url(#paint9_linear_328_7874)"/>
<path d="M65.5222 59.5553C65.2001 62.0102 62.9423 63.7409 60.4798 63.4198C58.0173 63.0987 56.2812 60.8479 56.6034 58.3931C56.9255 55.9382 59.1832 54.2076 61.6457 54.5287C64.1082 54.8498 65.8443 57.1005 65.5222 59.5553Z" fill="url(#paint10_linear_328_7874)"/>
<path d="M64.0945 59.5523C63.8462 61.4427 62.1078 62.7769 60.2115 62.5293C58.3152 62.2818 56.9769 60.5488 57.2252 58.6584C57.4736 56.7679 59.2119 55.4338 61.1082 55.6813C63.0046 55.9289 64.3429 57.6619 64.0945 59.5523Z" fill="url(#paint11_linear_328_7874)"/>
<path d="M59.5227 56.5003C59.5003 56.5087 57.2259 57.4637 57.8993 60.0809C57.9267 60.1832 58.0311 60.2456 58.1337 60.2184C58.2363 60.1911 58.2989 60.087 58.2716 59.9847C57.6806 57.6945 59.5859 56.8884 59.6676 56.8527C59.765 56.8125 59.8122 56.7014 59.7719 56.6043C59.7316 56.5072 59.6201 56.4602 59.5227 56.5003Z" fill="white"/>
<path d="M58.973 60.9798C58.9146 61.0536 58.9292 61.1605 59.0033 61.2188L59.3263 61.4677C59.4004 61.526 59.5077 61.5114 59.5661 61.4376C59.6246 61.3637 59.6099 61.2568 59.5359 61.1985L59.2128 60.9496C59.1388 60.8913 59.0315 60.9059 58.973 60.9798Z" fill="white"/>
<path d="M64.5733 66.9971L64.3739 65.5913C64.3405 65.3609 64.1976 65.173 64.0052 65.0727C63.8812 65.0079 63.4002 64.8967 63.3066 64.8689C63.2131 64.841 63.1118 64.8312 63.0094 64.847L60.543 65.1954C60.1647 65.2497 59.9005 65.5992 59.955 65.9764L60.1544 67.3821C60.19 67.6362 60.3584 67.8366 60.5821 67.928C60.6916 67.9716 61.1865 68.1067 61.3174 68.1244C61.3815 68.1329 61.4504 68.134 61.5162 68.1257L63.9826 67.7774C64.3609 67.723 64.6251 67.3735 64.5733 66.9971Z" fill="#B2B2B2"/>
<path d="M60.5431 65.1951C60.1647 65.2495 59.9005 65.599 59.955 65.9762L60.1545 67.3819C60.209 67.759 60.5596 68.0225 60.9399 67.9715L63.4063 67.6232C63.7846 67.5689 64.0488 67.2193 63.9977 66.8402L63.7983 65.4345C63.7438 65.0573 63.3931 64.7939 63.0148 64.8482L60.5484 65.1966L60.5431 65.1951Z" fill="white"/>
<path d="M60.5781 65.4364L63.0433 65.0884C63.289 65.0537 63.516 65.2238 63.5508 65.4687L63.7505 66.875C63.7853 67.1199 63.6147 67.3462 63.369 67.3808L60.901 67.7292C60.6553 67.7639 60.4284 67.5938 60.3936 67.3489L60.1938 65.9426C60.159 65.6977 60.3296 65.4715 60.5753 65.4368L60.5781 65.4364Z" fill="url(#paint12_linear_328_7874)"/>
<path d="M78.3284 48.4683C78.1522 48.404 77.9553 48.4923 77.8908 48.6679L77.6095 49.4244C77.6095 49.4244 77.6041 49.423 77.5987 49.4215L77.8649 48.12C77.9024 47.9372 77.783 47.7586 77.5997 47.7211C77.4164 47.6837 77.2345 47.802 77.1996 47.9855L76.9533 49.1916C76.9264 49.1844 76.8988 49.1799 76.8711 49.1754L77.0233 47.6103C77.042 47.4225 76.9048 47.2564 76.7184 47.2411C76.53 47.2225 76.3634 47.3592 76.3481 47.5451L76.1926 49.1438C76.1452 49.1484 76.097 49.1556 76.0489 49.1629L75.8296 47.8526C75.7982 47.6687 75.6245 47.5417 75.4373 47.5723C75.2528 47.6036 75.1281 47.7774 75.1561 47.9633L75.4302 49.5962C75.3621 49.742 75.3084 49.9205 75.2667 50.1079L74.7815 49.2388C74.6896 49.0761 74.4836 49.0153 74.3178 49.1062C74.1546 49.1979 74.0936 49.4032 74.1848 49.5686L75.1216 51.249C75.1413 51.283 75.1679 51.3131 75.1986 51.3386C75.3267 51.721 75.8707 52.0274 76.4314 52.0679C77.4595 52.1411 78.0056 51.6021 78.0383 50.2238L78.5252 48.9064C78.5897 48.7309 78.5011 48.5345 78.3249 48.4702L78.3284 48.4683Z" fill="url(#paint13_linear_328_7874)"/>
<path d="M66.374 61.3288C67.143 60.4436 71.6543 59.6718 72.7727 57.8843C73.8911 56.0968 74.8912 52.3439 75.3708 51.6548C75.5392 51.4149 77.5308 51.7052 77.6823 51.9902C78.069 52.7208 77.3342 57.2265 75.9994 60.0123C74.9058 62.2985 70.7919 64.7707 68.2843 65.4764C66.7478 65.9091 64.8483 63.0852 66.374 61.3288Z" fill="url(#paint14_linear_328_7874)"/>
<path d="M69.7317 59.7014C69.6588 59.6935 69.5949 59.7484 69.5869 59.821C69.5851 59.8493 69.3554 62.5188 71.5848 64.0725C71.6456 64.1147 71.7277 64.0992 71.77 64.0386C71.8123 63.9779 71.7967 63.8961 71.7359 63.8539C69.6356 62.3893 69.8452 59.8699 69.849 59.845C69.8569 59.7723 69.8019 59.7087 69.729 59.7007L69.7317 59.7014Z" fill="#FF9B92"/>
<defs>
<linearGradient id="paint0_linear_328_7874" x1="64.637" y1="67.8146" x2="75.6391" y2="65.0745" gradientUnits="userSpaceOnUse">
<stop stop-color="white"/>
<stop offset="1" stop-color="#DCD7CE"/>
</linearGradient>
<linearGradient id="paint1_linear_328_7874" x1="53.0782" y1="62.1158" x2="52.107" y2="65.77" gradientUnits="userSpaceOnUse">
<stop stop-color="white"/>
<stop offset="1" stop-color="#DCD7CE"/>
</linearGradient>
<linearGradient id="paint2_linear_328_7874" x1="43.9841" y1="58.5817" x2="43.0181" y2="62.2205" gradientUnits="userSpaceOnUse">
<stop stop-color="white"/>
<stop offset="1" stop-color="#DCD7CE"/>
</linearGradient>
<linearGradient id="paint3_linear_328_7874" x1="54.6475" y1="79.3424" x2="65.6198" y2="92.4067" gradientUnits="userSpaceOnUse">
<stop stop-color="white"/>
<stop offset="1" stop-color="#DCD7CE"/>
</linearGradient>
<linearGradient id="paint4_linear_328_7874" x1="62.7141" y1="85.216" x2="79.9851" y2="87.3724" gradientUnits="userSpaceOnUse">
<stop stop-color="white"/>
<stop offset="1" stop-color="#DCD7CE"/>
</linearGradient>
<linearGradient id="paint5_linear_328_7874" x1="59.1534" y1="75.5831" x2="67.509" y2="78.3007" gradientUnits="userSpaceOnUse">
<stop stop-color="white"/>
<stop offset="1" stop-color="#DCD7CE"/>
</linearGradient>
<linearGradient id="paint6_linear_328_7874" x1="65.1271" y1="78.9161" x2="69.9811" y2="74.0378" gradientUnits="userSpaceOnUse">
<stop stop-color="white"/>
<stop offset="1" stop-color="#DCD7CE"/>
</linearGradient>
<linearGradient id="paint7_linear_328_7874" x1="61.5137" y1="76.2845" x2="72.5549" y2="74.2492" gradientUnits="userSpaceOnUse">
<stop stop-color="white"/>
<stop offset="1" stop-color="#DCD7CE"/>
</linearGradient>
<linearGradient id="paint8_linear_328_7874" x1="60.9284" y1="68.9124" x2="69.8905" y2="66.2306" gradientUnits="userSpaceOnUse">
<stop stop-color="white"/>
<stop offset="1" stop-color="#DCD7CE"/>
</linearGradient>
<linearGradient id="paint9_linear_328_7874" x1="61.0673" y1="62.9663" x2="64.9841" y2="61.5171" gradientUnits="userSpaceOnUse">
<stop stop-color="#124078"/>
<stop offset="1" stop-color="#06172B"/>
</linearGradient>
<linearGradient id="paint10_linear_328_7874" x1="56.6007" y1="58.3968" x2="65.519" y2="59.5634" gradientUnits="userSpaceOnUse">
<stop stop-color="white"/>
<stop offset="1" stop-color="#DCD7CE"/>
</linearGradient>
<linearGradient id="paint11_linear_328_7874" x1="59.9504" y1="59.0802" x2="64.3962" y2="59.25" gradientUnits="userSpaceOnUse">
<stop stop-color="#124078"/>
<stop offset="1" stop-color="#06172B"/>
</linearGradient>
<linearGradient id="paint12_linear_328_7874" x1="61.481" y1="66.7575" x2="63.4698" y2="65.3193" gradientUnits="userSpaceOnUse">
<stop stop-color="#124078"/>
<stop offset="1" stop-color="#06172B"/>
</linearGradient>
<linearGradient id="paint13_linear_328_7874" x1="73.9571" y1="50.8314" x2="76.8015" y2="49.5555" gradientUnits="userSpaceOnUse">
<stop stop-color="white"/>
<stop offset="1" stop-color="#DCD7CE"/>
</linearGradient>
<linearGradient id="paint14_linear_328_7874" x1="68.4589" y1="56.6098" x2="75.2823" y2="60.1192" gradientUnits="userSpaceOnUse">
<stop stop-color="white"/>
<stop offset="1" stop-color="#DCD7CE"/>
</linearGradient>
</defs>
</svg>
