<?xml version="1.0" encoding="UTF-8"?><svg id="a" xmlns="http://www.w3.org/2000/svg" xmlns:xlink="http://www.w3.org/1999/xlink" viewBox="0 0 220.15 194.88"><defs><style>.d{fill:#380071;}.d,.e,.f,.g{stroke-width:0px;}.e{fill:#fff;}.f{fill:url(#b);}.g{fill:url(#c);}</style><linearGradient id="b" x1="-.54" y1="136.31" x2="219.94" y2="137.59" gradientTransform="translate(0 196.55) scale(1 -1)" gradientUnits="userSpaceOnUse"><stop offset="0" stop-color="#37f3ef"/><stop offset=".33" stop-color="#4db3f4"/><stop offset="1" stop-color="#7e2aff"/></linearGradient><linearGradient id="c" x1="220.13" y1="164.21" x2="-1.02" y2="161.02" gradientTransform="translate(0 196.55) scale(1 -1)" gradientUnits="userSpaceOnUse"><stop offset="0" stop-color="#7e2aff"/><stop offset="1" stop-color="#37f3ef"/></linearGradient></defs><path class="e" d="m21.06,179.54v8.86c0,4.1-1.84,5.62-4.21,6.48H4.21c-2.38-.86-4.21-2.38-4.21-6.48v-7.67h8.64v6.59l.54.54h2.7l.54-.54v-5.94l-.49-.76-8.91-4c-2.65-1.19-3.02-3.02-3.02-5.94v-8.2c0-4.1,1.84-5.62,4.21-6.48h12.64c2.38.86,4.21,2.38,4.21,6.48v7.24h-8.64v-6.16l-.54-.54h-2.7l-.54.54v5.67l.7.86,8.69,3.51c2.65,1.08,3.02,3.02,3.02,5.94h.01Z"/><path class="e" d="m36.88,171.12v23.76h-8.1v-23.76h-2.97v-7.02h2.97v-5.78h8.1v5.78h3.51v7.02h-3.51Z"/><path class="d" d="m162.49,63.45c-8.1,12.7-32.75,38.16-56.45,48.55-23.71-10.39-48.37-35.85-56.45-48.55-6.07-9.53-9.41-19.66-8.79-30.93.54-9.79,5.5-19.26,13.26-25.29C61.82,1.21,72.24-1.27,81.9.63c10.3,2.02,19.43,9.07,24.15,18.4,4.71-9.33,13.86-16.38,24.14-18.4,9.65-1.9,20.07.58,27.83,6.6,7.76,6.03,12.72,15.49,13.26,25.29.63,11.27-2.72,21.41-8.79,30.93h0Z"/><path class="f" d="m43.47,50.36c-1.56-3.09-1.23-5.78-1.64-5.64-6.25,2.15-35.77,9.51-37.79,24.02-2.25,16.21,87.34-1.75,103.18-6.23,10.19-2.88-2.05-5.11-8.06-4.36-6.01.76-7.65-.76-7.48-2.66.2-2.26-2.02-4-4.24-3.48-12.73,2.99-40.74,4.79-43.98-1.65Z"/><path class="g" d="m168.03,42.92c1.63,3.05,1.38,5.75,1.78,5.6,6.2-2.3,35.52-10.44,37.15-24.99,1.83-16.26-87.28,4.01-102.99,8.89-10.1,3.14,2.18,5.06,8.17,4.15s7.66.56,7.55,2.47c-.14,2.27,2.13,3.95,4.33,3.38,12.65-3.31,40.6-5.85,44.01.52h0Z"/><path class="e" d="m60.1,194.88h-11.02c-2.38-.86-4.21-2.38-4.21-6.48v-17.82c0-4.1,1.84-5.62,4.21-6.48h11.02c2.38.86,4.21,2.38,4.21,6.48v10.91h-11.34v6.37l.54.54h2.16l.54-.54v-4.1h8.1v4.64c0,4.1-1.84,5.62-4.21,6.48Zm-7.13-18.79h3.24v-4.97l-.54-.54h-2.16l-.54.54v4.97Z"/><path class="e" d="m69.87,156h8.1v38.88h-8.1v-38.88Z"/><path class="e" d="m83.54,156h8.1v38.88h-8.1v-38.88Z"/><path class="e" d="m108.27,192.13l-2.7,2.75h-4.43c-2.38-.86-4.21-2.38-4.21-6.48v-6.1c0-4.1,1.84-5.62,4.21-6.48h4.64c.81.27,1.73.76,2.48,1.46v-5.62l-.54-.54h-1.67l-.54.54v1.78h-8.1v-2.86c0-4.1,1.84-5.62,4.21-6.48h10.53c2.38.86,4.21,2.38,4.21,6.48v24.3h-8.1v-2.75h0Zm-2.7-3.73h2.16l.54-.54v-5.02l-.54-.54h-2.16l-.54.54v5.02l.54.54Z"/><path class="e" d="m130.3,172.74h-.27v22.14h-8.1v-38.88h9.45l4.59,13.5h.54l4.59-13.5h9.45v38.88h-8.1v-22.14h-.27l-2.7,8.64h-6.48l-2.7-8.64Z"/><path class="e" d="m171.34,194.88h-11.02c-2.38-.86-4.21-2.38-4.21-6.48v-17.82c0-4.1,1.84-5.62,4.21-6.48h11.02c2.38.86,4.21,2.38,4.21,6.48v10.91h-11.34v6.37l.54.54h2.16l.54-.54v-4.1h8.1v4.64c0,4.1-1.84,5.62-4.21,6.48Zm-7.13-18.79h3.24v-4.97l-.54-.54h-2.16l-.54.54v4.97Z"/><path class="e" d="m196.34,194.88h-11.02c-2.38-.86-4.21-2.38-4.21-6.48v-17.82c0-4.1,1.84-5.62,4.21-6.48h11.02c2.38.86,4.21,2.38,4.21,6.48v10.91h-11.34v6.37l.54.54h2.16l.54-.54v-4.1h8.1v4.64c0,4.1-1.84,5.62-4.21,6.48Zm-7.13-18.79h3.24v-4.97l-.54-.54h-2.16l-.54.54v4.97Z"/><path class="e" d="m216.64,171.12v23.76h-8.1v-23.76h-2.97v-7.02h2.97v-5.78h8.1v5.78h3.51v7.02h-3.51Z"/></svg>