<?xml version="1.0" encoding="UTF-8"?><svg id="a" xmlns="http://www.w3.org/2000/svg" viewBox="0 0 102.44 106.38"><defs><style>.b{fill:#5c5d5d;}.b,.c,.d,.e,.f,.g{stroke-width:0px;}.c{fill:#e1d500;}.d{fill:#00a2c5;}.e{fill:#fff;}.f{fill:#f5a21f;}.g{fill:#e83b3a;}</style></defs><path class="c" d="m83.89,67.98c-5.7-6.1-15.28-6.43-21.38-.72-6.1,5.7-6.43,15.28-.72,21.38,1.2,1.28,2.57,2.3,4.04,3.07h0s.02.01.02.01c.64.33,1.29.61,1.96.85l30.86,13.37-11.35-32.02h0c-.65-2.15-1.79-4.19-3.43-5.95Z"/><path class="f" d="m78.04,71.94c-3.07-3.29-8.23-3.46-11.51-.39-3.29,3.07-3.46,8.23-.39,11.51.65.69,1.38,1.24,2.17,1.66h0s.01,0,.01,0c.34.18.7.33,1.06.46l16.62,7.2-6.11-17.24h0c-.35-1.16-.96-2.26-1.85-3.2Z"/><path class="g" d="m23.39,50.65s-3.21,31.61,25.73,55.72c-.4-.13-16.92-24.51-.46-40.42-.67-.52-25.27-15.3-25.27-15.3Z"/><path class="g" d="m48.58,27.11s31.75-1.07,53.86,29.43c-.1-.41-23.31-18.54-40.3-3.18-.47-.7-13.56-26.25-13.56-26.25Z"/><path class="e" d="m66.89,53.53C44.31-.94,2.2-.04.14.04l-.03-.04s0,.01,0,.04c-.03,0-.05,0-.05,0l.04.05C-.09,2.15-3.24,44.06,49.76,69.53l17.13-16.01Z"/><polygon class="b" points="49.76 69.53 54.9 71.12 68.42 58.49 66.89 53.53 49.76 69.53"/><path class="g" d="m2.48,18.94c3.44-1.18,6.7-3.08,9.52-5.72,3.04-2.84,5.26-6.22,6.66-9.85C8.51-.16.98,0,.14.04l-.03-.04s0,.01,0,.04c-.03,0-.05,0-.05,0l.04.05C.02.93-.56,8.53,2.48,18.94Z"/><path class="b" d="m33.09,59.8c2.26,1.6,4.66,3.16,7.24,4.69,1.65-4.54,4.35-8.77,8.11-12.29,4.17-3.89,9.12-6.43,14.3-7.66-1.38-2.69-2.81-5.23-4.28-7.6-5.72,1.72-11.15,4.73-15.8,9.08-4.27,3.99-7.46,8.7-9.58,13.77Z"/><polygon class="g" points="34.25 40.51 73.76 80.98 36.45 38.45 34.25 40.51"/><path class="g" d="m19.73,18.89l-1.8,1.68c-1.03.96-2.65.91-3.61-.12h0c-.96-1.03-.91-2.65.12-3.61l1.8-1.68c1.03-.96,2.65-.91,3.61.12h0c.96,1.03.91,2.65-.12,3.61Z"/><path class="b" d="m34.81,23.36c3.54,3.78,3.34,9.72-.45,13.26-3.78,3.54-9.72,3.34-13.26-.45-3.54-3.78-3.34-9.72.45-13.26,3.78-3.54,9.72-3.34,13.26.45Z"/><path class="d" d="m32.71,25.32c2.45,2.62,2.31,6.73-.31,9.18-2.62,2.45-6.73,2.31-9.18-.31-2.45-2.62-2.31-6.73.31-9.18,2.62-2.45,6.73-2.31,9.18.31Z"/></svg>