<?xml version="1.0" encoding="UTF-8"?><svg id="a" xmlns="http://www.w3.org/2000/svg" viewBox="0 0 218.68 138.08"><defs><style>.b{fill:#2957a7;}.b,.c,.d{stroke-width:0px;}.c{fill:#fdd87b;}.d{fill:#00a5e5;}</style></defs><circle class="b" cx="112" cy="69.04" r="69.02" transform="translate(39.17 178.62) rotate(-88.04)"/><ellipse class="d" cx="105.8" cy="23.43" rx="17.14" ry="17.55" transform="translate(-1.92 35.25) rotate(-18.75)"/><ellipse class="d" cx="85.11" cy="56.42" rx="6.57" ry="6.73" transform="translate(-13.61 30.34) rotate(-18.74)"/><path class="d" d="m49.74,39.25c1.56.87,3.45,1.11,5.25.5,3.44-1.17,5.25-4.96,4.06-8.48-.48-1.41-1.37-2.56-2.49-3.35-2.63,3.56-4.92,7.35-6.82,11.33Z"/><path class="d" d="m143.32,53.1c1.19,3.52-.62,7.31-4.06,8.48-3.44,1.17-7.19-.74-8.38-4.26-1.19-3.52.62-7.31,4.06-8.48,3.44-1.17,7.19.74,8.38,4.26Z"/><ellipse class="d" cx="91.35" cy="116.32" rx="6.57" ry="6.73" transform="translate(-32.53 35.53) rotate(-18.74)"/><path class="d" d="m124.87,75.39c2.32,6.83-1.21,14.21-7.88,16.47-6.67,2.26-13.96-1.44-16.28-8.27s1.21-14.21,7.88-16.47c6.67-2.26,13.96,1.44,16.28,8.27Z"/><path class="d" d="m180.75,75.34c-2.89-.15-5.84.23-8.73,1.21-12.55,4.26-19.19,18.13-14.83,30.97,1.14,3.35,2.92,6.3,5.14,8.76,10.47-11.18,17.01-25.62,18.42-40.95Z"/><path class="c" d="m44.87,85.11c-10.58,6.21-16.52,11.6-15.41,14.88,2.55,7.51,40.38,1.46,84.5-13.51,44.12-14.97,77.81-33.2,75.26-40.71-.86-2.53-5.73-3.52-13.5-3.15l-3.38-7.34c26.27-5.12,44.16-5.33,46.16.56,3.48,10.26-42.56,35.17-102.85,55.63C55.36,111.92,3.67,120.19.19,109.93c-2.19-6.45,15.17-18.67,43.32-31.94l1.36,7.13Z"/></svg>