<?xml version="1.0" encoding="UTF-8"?><svg id="a" xmlns="http://www.w3.org/2000/svg" xmlns:xlink="http://www.w3.org/1999/xlink" viewBox="0 0 66.56 66.56"><defs><style>.d{fill:#fff;filter:url(#b);}.d,.e,.f{stroke-width:0px;}.e{fill:#c11677;}.f{fill:#e73674;}</style><filter id="b" filterUnits="userSpaceOnUse"><feOffset dx="0" dy="0"/><feGaussianBlur result="c" stdDeviation="1.98"/><feFlood flood-color="#fff" flood-opacity="1"/><feComposite in2="c" operator="in"/><feComposite in="SourceGraphic"/></filter></defs><path class="d" d="m19.89,43.6s.91-.02.91-.91c0,0,.04.95.88.95.03.03-.83-.11-.83.99-.04,0,.05-1.02-.96-1.02Z"/><circle class="f" cx="33.28" cy="33.28" r="33.28"/><path class="e" d="m57.29,10.25h-21.71c-1.91,0-3.46,1.55-3.46,3.46s1.55,3.46,3.46,3.46h26.82c-1.4-2.52-3.12-4.85-5.11-6.91Z"/><path class="e" d="m31.11,41.97H1.15c.45,1.68,1.04,3.31,1.74,4.88h28.22c1.35,0,2.44-1.09,2.44-2.44s-1.09-2.44-2.44-2.44Z"/><path class="e" d="m23.35,53.21c-4.09-.05-11.21-.12-15.76-.09-.42,0-.66.49-.4.82,1.66,2.09,3.56,3.97,5.66,5.61.09.07.2.11.32.11h10.14c1.78,0,3.22-1.44,3.22-3.22h0c0-1.77-1.42-3.2-3.18-3.22Z"/></svg>