<?xml version="1.0" encoding="UTF-8"?><svg id="a" xmlns="http://www.w3.org/2000/svg" xmlns:xlink="http://www.w3.org/1999/xlink" viewBox="0 0 271.45 271.45"><defs><style>.c{fill:url(#b);opacity:.4;}.c,.d,.e{stroke-width:0px;}.d{fill:#f8b711;}.e{fill:#f1881e;}</style><radialGradient id="b" cx="135.73" cy="135.73" fx="135.73" fy="135.73" r="135.73" gradientTransform="translate(135.73 -56.22) rotate(45)" gradientUnits="userSpaceOnUse"><stop offset="0" stop-color="#f0f4fb"/><stop offset=".09" stop-color="#f0f4fb" stop-opacity=".96"/><stop offset=".23" stop-color="#f2f5fb" stop-opacity=".86"/><stop offset=".41" stop-color="#f4f7fc" stop-opacity=".69"/><stop offset=".63" stop-color="#f8f9fd" stop-opacity=".46"/><stop offset=".87" stop-color="#fcfdfe" stop-opacity=".17"/><stop offset="1" stop-color="#fff" stop-opacity="0"/></radialGradient></defs><circle class="c" cx="135.73" cy="135.73" r="135.73" transform="translate(-56.22 135.73) rotate(-45)"/><circle class="d" cx="135.73" cy="130.33" r="113.03"/><path class="e" d="m132.59,210.25h-60.51c-4.41,0-7.99-3.58-7.99-7.99v-1.71c0-4.41,3.58-7.99,7.99-7.99h42.82c4.41,0,7.99-3.58,7.99-7.99s-3.58-7.99-7.99-7.99H32.56c9.22,20.54,24.4,37.83,43.34,49.67h56.69c4.41,0,7.99-3.58,7.99-7.99h0c0-4.41-3.58-7.99-7.99-7.99Z"/><path class="e" d="m194.65,33.85h-63.77c-4.1,0-7.42,3.32-7.42,7.42v3.43c0,4.1,3.32,7.42,7.42,7.42h35.97c4.1,0,7.42,3.32,7.42,7.42v.57c0,4.1-3.32,7.42-7.42,7.42h-15.98c-4.1,0-7.42,3.32-7.42,7.42v2.28c0,4.1,3.32,7.42,7.42,7.42h51.38c4.1,0,7.42,3.32,7.42,7.42s-3.32,7.42-7.42,7.42h-11.42c-4.1,0-7.42,3.32-7.42,7.42v1.14c0,4.1,3.32,7.42,7.42,7.42h56.97c-4.53-34.57-24.69-64.22-53.15-81.64Z"/><path class="e" d="m79.32,106.78H25.16c-1.61,7.6-2.46,15.47-2.46,23.55,0,2.66.1,5.3.28,7.92h45.85c2.66,0,4.82-2.16,4.82-4.82s-2.16-4.82-4.82-4.82h-15.41c-2.66,0-4.82-2.16-4.82-4.82v-1.07c0-2.66,2.16-4.82,4.82-4.82h25.9c2.66,0,4.82-2.16,4.82-4.82v-1.5c0-2.66-2.16-4.82-4.82-4.82Z"/></svg>