<svg width="106" height="152" viewBox="0 0 106 152" fill="none" xmlns="http://www.w3.org/2000/svg">
<path style="mix-blend-mode:overlay" opacity="0.4" d="M67.2303 151.47L0.570312 137.37L33.9303 35.23L81.2003 45.23L67.2303 151.47Z" fill="url(#paint0_linear_213_3549)"/>
<path d="M52.8502 59.9698L34.7402 43.7898L59.7102 27.5298L75.9702 52.4998L52.8502 59.9698Z" fill="#235559"/>
<path d="M102.631 47.3899C100.951 55.3399 79.4207 57.5199 54.5507 52.2599C29.6707 46.9999 10.8707 36.2899 12.5507 28.3499C14.2307 20.3999 35.7607 18.2199 60.6307 23.4799C85.5007 28.7399 104.311 39.4499 102.631 47.3899Z" fill="#30767A"/>
<path d="M104.131 39.6477L14.1797 20.6265L12.5473 28.3458L102.498 47.367L104.131 39.6477Z" fill="#30767A"/>
<path d="M104.301 39.4798C102.621 47.4298 81.0905 49.6098 56.2205 44.3498C31.3505 39.0898 12.5405 28.3798 14.2205 20.4398C15.9005 12.4898 37.4305 10.3098 62.3005 15.5698C87.1705 20.8298 105.981 31.5398 104.301 39.4798Z" fill="#8ED0E4"/>
<path d="M83.6305 28.6298C80.9405 41.3598 34.8304 31.6098 37.5204 18.8798C40.2104 6.1498 52.7205 -1.99021 65.4505 0.699794C78.1805 3.38979 86.3205 15.8998 83.6305 28.6298Z" fill="#2E50A2"/>
<path d="M37.52 18.8798C40.21 6.1498 52.72 -1.99021 65.45 0.699794C78.18 3.38979 34.83 31.6098 37.52 18.8798Z" fill="#4C6BB3"/>
<path d="M13.7103 23.8896C15.0003 24.1596 14.0103 28.8496 12.7203 28.5696C11.4303 28.2996 10.6003 27.0296 10.8703 25.7296C11.1403 24.4396 12.4103 23.6096 13.7103 23.8796V23.8896Z" fill="#EDA637"/>
<path d="M23.5706 34.3901C24.8606 34.6601 23.8706 39.3501 22.5806 39.0701C21.2906 38.8001 20.4606 37.5301 20.7306 36.2301C21.0006 34.9401 22.2706 34.1101 23.5706 34.3801V34.3901Z" fill="#EDA637"/>
<path d="M37.8099 40.8398C38.4799 40.9798 39.0199 42.2698 38.7399 43.4798C38.4799 44.5998 37.4399 45.6498 36.8199 45.5198C35.5299 45.2498 34.6999 43.9798 34.9699 42.6798C35.2399 41.3898 36.5099 40.5598 37.8099 40.8298V40.8398Z" fill="#EDA637"/>
<path d="M103.1 42.8296C101.81 42.5596 100.82 47.2396 102.11 47.5096C103.4 47.7796 104.67 46.9596 104.95 45.6596C105.22 44.3696 104.4 43.0996 103.1 42.8196V42.8296Z" fill="#EDA637"/>
<path d="M89.8307 48.44C88.5407 48.17 87.5507 52.85 88.8407 53.12C90.1307 53.39 91.4007 52.5699 91.6807 51.2699C91.9507 49.9799 91.1307 48.71 89.8307 48.43V48.44Z" fill="#EDA637"/>
<path d="M74.1998 48.58C73.5298 48.44 72.5098 49.4 72.2798 50.62C72.0698 51.75 72.5898 53.13 73.2098 53.26C74.4998 53.53 75.7698 52.71 76.0498 51.41C76.3198 50.12 75.4998 48.85 74.1998 48.57V48.58Z" fill="#EDA637"/>
<path d="M57.6408 48.8596C57.3708 50.1096 56.1408 50.9096 54.8908 50.6496C53.6408 50.3896 52.8408 49.1496 53.1008 47.8996C53.3708 46.6496 54.6008 45.8396 55.8508 46.1096C57.1008 46.3796 57.9108 47.6096 57.6408 48.8596Z" fill="#EDA637"/>
<defs>
<linearGradient id="paint0_linear_213_3549" x1="57.7277" y1="34.3176" x2="34.4911" y2="141.159" gradientUnits="userSpaceOnUse">
<stop stop-color="white"/>
<stop offset="0.13" stop-color="#FCFCFC" stop-opacity="0.98"/>
<stop offset="0.25" stop-color="#F3F3F3" stop-opacity="0.94"/>
<stop offset="0.38" stop-color="#E4E4E4" stop-opacity="0.86"/>
<stop offset="0.5" stop-color="#CFCFCF" stop-opacity="0.75"/>
<stop offset="0.63" stop-color="#B5B5B5" stop-opacity="0.61"/>
<stop offset="0.75" stop-color="#949494" stop-opacity="0.44"/>
<stop offset="0.87" stop-color="#6D6D6D" stop-opacity="0.24"/>
<stop offset="1" stop-color="#404040" stop-opacity="0"/>
</linearGradient>
</defs>
</svg>
